<?xml version="1.0" standalone="no"?>
<!DOCTYPE svg PUBLIC "-//W3C//DTD SVG 20010904//EN"
 "http://www.w3.org/TR/2001/REC-SVG-20010904/DTD/svg10.dtd">
<svg version="1.0" xmlns="http://www.w3.org/2000/svg"
 width="116.000000pt" height="116.000000pt" viewBox="0 0 116.000000 116.000000"
 preserveAspectRatio="xMidYMid meet">
<metadata>
Created by potrace 1.14, written by Peter Selinger 2001-2017
</metadata>
<g transform="translate(0.000000,116.000000) scale(0.100000,-0.100000)"
fill="#000000" stroke="none">
<path d="M44 920 c-12 -5 -26 -15 -30 -22 -12 -19 -13 -598 -1 -625 5 -12 22
-26 36 -30 27 -9 537 -10 545 -2 3 3 3 15 -1 27 -5 22 -6 22 -252 22 l-246 0
55 52 c30 28 91 85 135 127 118 112 109 108 149 77 19 -14 42 -33 50 -42 22
-22 52 -12 100 31 41 37 51 41 61 24 10 -15 44 23 42 46 -1 11 43 53 128 120
72 56 132 100 135 98 3 -3 6 -38 6 -79 2 -83 0 -79 32 -88 22 -7 22 -7 22 113
0 178 52 161 -494 160 -248 0 -461 -4 -472 -9z m855 -50 c0 -3 -37 -34 -82
-70 -45 -36 -130 -105 -189 -153 -77 -63 -112 -86 -122 -80 -25 14 -395 298
-396 303 0 3 178 5 395 5 217 0 395 -2 394 -5z m-689 -150 c69 -51 128 -96
133 -100 4 -3 -1 -15 -11 -26 -37 -38 -255 -239 -263 -242 -5 -2 -9 102 -9
238 0 193 3 240 13 233 6 -6 68 -52 137 -103z"/>
<path d="M835 604 c-65 -17 -118 -58 -163 -127 -24 -37 -27 -52 -27 -122 0
-88 14 -125 69 -183 122 -130 333 -96 414 67 25 49 29 69 27 118 -7 141 -104
242 -238 249 -34 1 -71 1 -82 -2z m118 -134 c15 -12 29 -36 33 -55 3 -19 10
-35 15 -35 4 0 7 -35 6 -77 l-2 -78 -107 -3 -108 -3 0 80 c0 44 5 83 10 86 6
3 10 17 10 29 0 13 12 35 26 50 33 32 81 34 117 6z"/>
<path d="M859 446 c-22 -23 -33 -55 -21 -57 4 -1 33 -2 65 -3 52 -2 57 0 57
19 0 50 -67 77 -101 41z"/>
<path d="M869 343 c-18 -21 -13 -54 13 -76 19 -16 22 -16 39 -1 10 9 17 20 14
23 -2 4 0 13 5 20 10 17 -18 51 -41 51 -9 0 -23 -7 -30 -17z"/>
</g>
</svg>
